<?xml version="1.0" standalone="no"?>
<!DOCTYPE svg PUBLIC "-//W3C//DTD SVG 20010904//EN"
 "http://www.w3.org/TR/2001/REC-SVG-20010904/DTD/svg10.dtd">
<svg version="1.0" xmlns="http://www.w3.org/2000/svg"
 width="900.000000pt" height="600.000000pt" viewBox="0 0 900.000000 600.000000"
 preserveAspectRatio="xMidYMid meet">

<g transform="translate(0.000000,600.000000) scale(0.100000,-0.100000)"
fill="#000000" stroke="none">
<path d="M0 3000 l0 -3000 4500 0 4500 0 0 3000 0 3000 -4500 0 -4500 0 0
-3000z m1392 2513 c52 -54 112 -119 131 -145 l36 -48 -20 -72 c-12 -42 -18
-84 -14 -98 4 -14 6 -45 5 -69 l-1 -43 218 -211 c180 -175 328 -322 486 -485
12 -13 105 -105 208 -205 161 -158 330 -334 555 -577 53 -57 153 -172 221
-253 19 -22 31 -27 69 -27 42 0 51 -5 102 -54 56 -54 57 -56 55 -108 -3 -87
-16 -110 -228 -403 -55 -77 -144 -201 -197 -275 -53 -74 -108 -148 -122 -165
l-24 -30 -32 30 c-53 49 -179 200 -315 375 -70 91 -167 210 -215 265 -146 169
-520 625 -520 634 0 5 -21 31 -47 58 -48 50 -335 386 -383 447 -14 18 -57 68
-97 112 -116 128 -223 267 -223 291 0 12 9 42 20 68 11 26 20 56 20 68 0 11 8
30 19 41 20 23 136 299 183 436 36 105 68 235 68 275 0 22 -15 49 -55 97 -59
71 -57 61 -25 143 5 14 13 25 17 25 5 0 52 -44 105 -97z m101 46 c172 -54 686
-244 757 -279 73 -37 155 -100 268 -207 73 -70 92 -94 92 -116 0 -28 -19 -78
-41 -108 -10 -13 -8 -22 9 -44 12 -15 307 -316 655 -669 348 -352 673 -685
721 -739 95 -105 120 -123 184 -131 57 -7 71 -16 136 -90 36 -41 66 -66 82
-68 13 -2 24 -7 24 -13 0 -15 -760 -11 -788 4 -14 8 -22 21 -22 39 0 32 -34
92 -53 92 -7 0 -22 -7 -33 -15 -30 -23 -44 -18 -85 29 -36 41 -61 56 -119 71
-25 6 -173 164 -198 210 -7 13 -24 33 -37 43 -14 11 -25 25 -25 30 0 6 -32 39
-71 74 -38 35 -135 133 -214 218 -79 85 -216 229 -304 320 -109 112 -161 172
-161 187 0 12 9 46 21 75 11 29 41 111 65 181 32 94 54 142 83 179 41 51 84
148 79 177 -3 16 -302 121 -728 255 l-185 58 -80 80 c-79 78 -79 79 -45 73 19
-4 91 -28 160 -52 434 -156 605 -214 624 -211 11 2 22 11 24 20 2 12 -8 20
-39 28 -24 7 -187 64 -364 127 -176 64 -363 130 -415 147 -52 17 -105 37 -117
44 -26 14 -32 37 -8 28 8 -3 75 -24 148 -47z m219 -531 c48 -73 50 -78 40 -78
-12 0 -92 103 -92 118 0 25 19 10 52 -40z m105 -82 c31 -50 63 -99 71 -108 9
-10 10 -18 4 -18 -17 0 -87 85 -131 160 -83 138 -33 108 56 -34z m21 74 c31
-34 207 -339 199 -346 -10 -10 -85 89 -169 225 -49 77 -88 142 -88 145 0 17
35 2 58 -24z m576 11 c37 -10 72 -23 78 -29 16 -16 -45 -137 -80 -158 -35 -20
-36 -21 -151 -189 -46 -66 -85 -122 -87 -124 -11 -11 -94 86 -109 128 -21 55
-69 143 -142 263 -29 47 -53 89 -53 92 0 3 7 6 15 6 16 0 94 -113 159 -232 35
-63 66 -101 66 -81 0 5 -38 73 -85 151 -47 79 -85 145 -85 149 0 19 51 -46
113 -145 39 -62 73 -108 75 -102 4 11 -58 121 -102 179 -27 37 -32 51 -17 51
8 0 56 -64 133 -174 4 -6 9 -8 12 -5 3 3 -15 38 -40 78 -26 39 -43 75 -39 79
6 7 31 -19 102 -104 41 -49 43 -30 3 21 -27 34 -37 55 -26 55 2 0 48 -14 102
-30 54 -17 105 -29 114 -27 8 1 -17 22 -57 45 -88 52 -100 68 -71 100 27 28
78 29 172 3z m3496 -407 c62 -18 126 -49 153 -72 15 -14 17 -39 17 -252 0
-208 -2 -239 -16 -244 -30 -11 -229 -7 -242 6 -8 8 -12 65 -12 190 0 165 -1
179 -20 198 -23 23 -86 27 -114 7 -17 -12 -18 -46 -16 -535 0 -304 5 -533 10
-548 9 -23 14 -25 72 -22 l63 3 3 213 2 212 129 0 128 0 7 -46 c3 -26 6 -136
6 -245 0 -228 3 -221 -95 -265 -113 -52 -267 -67 -400 -39 -80 17 -171 58
-185 84 -6 11 -10 267 -10 647 l-1 629 33 21 c43 27 140 63 203 74 69 12 219
4 285 -16z m-710 -672 l1 -668 -23 -21 c-54 -50 -207 -93 -331 -93 -137 1
-299 52 -325 102 -7 15 -12 111 -14 271 l-3 248 129 -3 c120 -3 129 -4 134
-23 2 -11 7 -103 11 -205 3 -102 10 -191 14 -197 9 -15 123 -18 131 -4 3 5 6
290 6 635 l1 626 134 0 134 0 1 -668z m-3734 -163 c-3 -34 -10 -78 -16 -98 -5
-20 -21 -83 -36 -141 -73 -295 -268 -940 -284 -940 -16 0 -12 31 26 166 19 71
59 217 89 324 29 107 74 272 99 365 26 94 56 206 68 250 21 81 43 135 55 135
3 0 3 -28 -1 -61z m100 -47 c-22 -5 -30 3 -21 18 5 8 11 7 22 -2 15 -12 14
-13 -1 -16z m194 -206 c0 -3 -4 -8 -10 -11 -5 -3 -10 -1 -10 4 0 6 5 11 10 11
6 0 10 -2 10 -4z m-1137 -213 c3 -5 1 -48 -4 -98 -5 -49 -9 -186 -10 -302 -1
-254 5 -243 -127 -243 -67 0 -84 3 -89 16 -10 27 25 44 91 44 34 0 67 4 75 9
11 7 16 55 22 218 5 114 11 233 15 263 5 40 3 52 -5 45 -15 -15 -31 -177 -31
-332 0 -72 -4 -143 -10 -157 -9 -24 -14 -26 -70 -26 -44 0 -62 4 -66 14 -7 17
12 244 31 366 12 80 12 100 0 88 -9 -9 -35 -205 -43 -328 -6 -88 -13 -125 -24
-136 -9 -9 -52 -25 -97 -35 -45 -11 -95 -26 -111 -34 -48 -25 -53 -20 -47 34
5 43 12 55 54 93 125 113 173 163 183 192 12 38 32 227 25 235 -4 3 -35 -5
-71 -18 -36 -13 -67 -21 -70 -18 -11 11 73 58 136 77 54 17 104 25 227 39 6 0
14 -2 16 -6z m530 -22 c59 -5 111 -11 114 -15 7 -7 -105 -423 -137 -507 -24
-66 -30 -69 -147 -69 -55 0 -84 4 -90 13 -4 6 -13 95 -19 197 -14 216 -22 254
-69 310 -19 23 -35 46 -35 50 0 24 203 35 383 21z m-413 -116 c13 -14 19 -25
13 -25 -5 0 -20 11 -33 25 -13 14 -19 25 -13 25 5 0 20 -11 33 -25z m40 -82
c0 -2 -4 -3 -8 -3 -12 0 -82 71 -82 84 0 5 20 -10 45 -34 25 -24 45 -45 45
-47z m2743 -33 c7 -130 3 -153 -22 -148 -13 3 -16 21 -19 113 -3 121 2 155 22
155 10 0 14 -30 19 -120z m-3193 67 c8 -14 11 -29 7 -34 -9 -9 -46 35 -47 55
0 21 23 8 40 -21z m1718 21 c-3 -7 -13 -15 -24 -17 -16 -3 -17 -1 -5 13 16 19
34 21 29 4z m-1310 -61 c23 -23 42 -49 42 -57 0 -8 -22 8 -50 35 -27 27 -50
53 -50 57 0 17 17 6 58 -35z m-398 -41 c0 -5 -10 -1 -22 10 -21 19 -21 19 -14
-1 6 -17 4 -17 -18 4 -27 25 -28 43 -1 21 20 -17 19 -1 -2 24 -10 12 -1 5 20
-13 20 -19 37 -39 37 -45z m-56 -9 c21 -26 36 -50 33 -53 -6 -6 -31 20 -81 84
-36 45 6 18 48 -31z m-140 16 c-3 -16 -8 -37 -11 -48 l-6 -20 -8 20 c-4 11 -8
32 -8 48 -1 21 4 27 19 27 17 0 19 -5 14 -27z m611 -40 c35 -46 42 -63 26 -63
-14 0 -101 98 -101 115 0 25 34 2 75 -52z m584 -35 l1 -68 -31 0 c-30 0 -31 1
-25 34 4 19 14 58 23 88 13 43 17 49 24 33 4 -11 8 -50 8 -87z m878 -15 c131
-159 233 -295 227 -305 -3 -4 -65 -8 -139 -8 l-134 0 -6 33 c-3 17 -14 102
-25 187 -11 85 -22 165 -24 178 -2 12 0 22 5 22 4 0 47 -48 96 -107z m-1927 0
c0 -12 -38 -33 -60 -33 -5 0 -17 11 -25 24 -14 20 -14 31 -5 68 l12 43 39 -44
c21 -24 39 -50 39 -58z m3399 22 c58 -54 76 -60 27 -8 -36 38 -38 53 -8 53 17
0 120 -96 111 -103 -13 -12 -90 -13 -116 -2 -32 14 -95 83 -87 97 10 15 25 8
73 -37z m172 -1 c30 -25 58 -50 64 -55 5 -5 -6 -9 -30 -9 -33 0 -45 7 -82 46
-24 26 -43 51 -43 55 0 22 41 5 91 -37z m80 -6 c70 -77 43 -92 -34 -19 -54 50
-64 71 -36 71 14 0 40 -20 70 -52z m69 6 c54 -51 66 -80 28 -69 -22 6 -108 92
-108 107 0 21 36 4 80 -38z m96 -6 c57 -63 60 -68 31 -68 -27 0 -90 48 -108
83 -8 15 -8 22 2 28 17 10 37 -1 75 -43z m79 -1 c49 -47 56 -67 25 -67 -20 0
-25 5 -81 73 -29 34 -30 37 -10 37 11 0 41 -19 66 -43z m95 -12 c33 -34 33
-55 1 -55 -17 0 -91 83 -91 101 0 16 58 -13 90 -46z m-3543 3 c39 -40 72 -98
55 -98 -18 1 -112 100 -112 119 0 30 11 26 57 -21z m3596 6 c35 -35 25 -65
-10 -32 -14 13 -29 31 -34 41 -15 27 14 21 44 -9z m-696 -16 c18 -18 33 -36
33 -40 0 -4 -22 -8 -50 -8 -54 0 -59 6 -40 54 12 33 17 33 57 -6z m5164 1 c78
-17 99 -43 99 -122 0 -36 -5 -68 -12 -75 -7 -7 -30 -12 -53 -12 -52 0 -65 13
-65 69 0 27 -6 51 -17 63 -20 22 -31 23 -55 1 -21 -19 -25 -112 -7 -173 10
-34 20 -41 101 -81 54 -26 93 -52 98 -64 4 -11 8 -73 9 -137 2 -112 1 -119
-22 -142 -25 -25 -101 -46 -165 -46 -52 0 -101 16 -129 42 -20 19 -23 31 -23
95 l0 73 58 0 c57 0 59 -1 60 -27 0 -16 7 -46 15 -68 12 -34 19 -40 45 -43
l32 -3 0 93 c-1 58 -5 99 -13 109 -7 9 -45 33 -84 53 -114 57 -113 56 -113
218 l0 137 30 16 c64 33 132 41 211 24z m-382 -27 l36 -17 0 -315 0 -315 -36
-18 c-77 -37 -219 -32 -267 11 -19 16 -20 33 -25 324 l-5 306 33 16 c81 39
195 42 264 8z m-3790 -326 c2 -309 0 -344 -14 -350 -23 -8 -77 -7 -92 2 -9 6
-13 96 -15 350 l-3 342 62 0 61 0 1 -344z m236 333 c-4 -6 2 -20 13 -32 11
-12 33 -53 48 -90 27 -64 28 -67 40 -45 7 13 26 58 41 101 l28 77 62 0 c52 0
62 -3 63 -17 1 -10 4 -161 7 -336 3 -235 1 -322 -8 -333 -14 -17 -90 -19 -107
-2 -8 8 -12 67 -12 200 l0 188 -26 -16 c-14 -10 -34 -34 -45 -56 -11 -21 -23
-38 -27 -38 -4 0 -21 26 -37 58 l-29 57 -7 -30 c-3 -16 -7 -105 -8 -196 -1
-185 1 -179 -72 -179 -23 0 -41 5 -44 13 -2 6 -6 164 -7 350 l-3 337 68 0 c46
0 66 -3 62 -11z m690 -8 c16 -7 33 -18 37 -24 4 -7 8 -97 8 -200 l0 -188 -26
-24 c-16 -14 -48 -28 -82 -35 -104 -20 -102 -18 -102 -114 0 -93 -2 -96 -71
-96 -23 0 -41 5 -44 13 -2 6 -6 164 -7 351 l-3 338 130 -4 c72 -3 143 -11 160
-17z m269 -27 c3 -26 6 -149 6 -275 0 -274 1 -279 74 -279 l51 0 1 -43 c0 -23
-4 -45 -10 -49 -20 -14 -226 -9 -231 5 -2 6 -6 164 -7 350 l-3 337 56 0 56 0
7 -46z m489 9 c6 -49 -7 -63 -55 -63 -68 0 -78 -11 -78 -90 0 -38 5 -81 12
-95 10 -21 18 -25 57 -25 46 0 46 0 49 -37 3 -41 -9 -53 -51 -53 -56 0 -67
-14 -67 -85 0 -35 5 -76 12 -90 10 -22 17 -25 64 -25 l52 0 5 -37 c7 -59 -1
-63 -130 -63 -82 0 -115 3 -118 13 -2 6 -6 164 -7 350 l-3 337 126 0 127 0 5
-37z m232 26 c-4 -6 2 -20 13 -32 11 -12 33 -53 48 -90 27 -64 28 -67 40 -45
7 13 26 58 41 101 l28 77 62 0 c52 0 62 -3 63 -17 1 -10 4 -161 7 -336 3 -235
1 -322 -8 -333 -14 -17 -90 -19 -107 -2 -8 8 -12 67 -12 200 l0 188 -26 -16
c-14 -10 -34 -34 -45 -56 -11 -21 -23 -38 -27 -38 -4 0 -21 26 -37 58 l-29 57
-7 -30 c-3 -16 -7 -105 -8 -196 -1 -185 1 -179 -72 -179 -23 0 -41 5 -44 13
-2 6 -6 164 -7 350 l-3 337 68 0 c46 0 66 -3 62 -11z m658 -26 c6 -49 -7 -63
-55 -63 -68 0 -78 -11 -78 -90 0 -38 5 -81 12 -95 10 -21 18 -25 57 -25 46 0
46 0 49 -37 3 -41 -9 -53 -51 -53 -56 0 -67 -14 -67 -85 0 -35 5 -76 12 -90
10 -22 17 -25 64 -25 l52 0 5 -37 c7 -59 -1 -63 -130 -63 -82 0 -115 3 -118
13 -2 6 -6 164 -7 350 l-3 337 126 0 127 0 5 -37z m214 31 c-4 -4 9 -25 29
-46 19 -22 40 -50 46 -64 19 -41 28 -27 28 46 l0 70 58 0 c47 0 58 -3 61 -17
1 -10 5 -162 7 -338 6 -356 8 -345 -62 -345 -66 0 -64 -4 -64 177 l0 166 -31
51 c-17 28 -33 53 -36 56 -16 17 -23 -52 -23 -231 0 -230 4 -219 -71 -219 -23
0 -41 5 -44 13 -2 6 -6 164 -7 350 l-3 337 59 0 c33 0 56 -3 53 -6z m621 -22
c0 -15 2 -34 4 -41 2 -7 -4 -16 -12 -20 -8 -4 -28 -14 -45 -22 l-30 -15 -3
-282 -2 -282 -24 -6 c-13 -3 -38 -4 -57 -2 l-34 3 -5 276 c-5 254 -7 279 -24
298 -11 12 -27 21 -36 21 -25 0 -36 19 -39 63 l-2 37 154 0 154 0 1 -28z
m-7309 -17 c40 -34 76 -94 64 -106 -10 -10 -123 100 -123 120 0 19 27 12 59
-14z m2794 -55 c6 -22 5 -119 -2 -260 -6 -124 -14 -304 -17 -400 -7 -186 -14
-221 -41 -198 -14 11 -15 39 -10 223 4 115 9 305 12 420 4 116 8 220 11 233 7
35 36 23 47 -18z m227 25 c0 -8 -4 -15 -10 -15 -5 0 -10 7 -10 15 0 8 5 15 10
15 6 0 10 -7 10 -15z m536 -290 c-7 -262 -20 -390 -45 -425 -11 -15 -34 -29
-57 -34 -21 -5 -102 -24 -179 -43 -387 -95 -513 -110 -479 -57 7 13 61 28 200
55 210 43 481 112 498 129 16 16 1 13 -190 -35 -97 -25 -181 -45 -184 -45 -16
0 -18 62 -8 230 15 247 30 240 22 -9 -5 -144 -4 -202 3 -198 21 13 45 220 59
512 6 138 17 175 47 175 6 0 8 -116 5 -325 -5 -342 6 -428 18 -142 7 158 15
200 30 141 7 -27 0 -180 -12 -267 -8 -53 9 -66 27 -19 13 32 28 271 29 435 0
101 3 125 23 167 12 27 26 50 31 50 9 0 4 -218 -10 -509 -5 -91 -4 -132 3
-128 6 4 13 83 17 189 7 191 11 222 27 213 12 -8 11 -128 -1 -274 -9 -114 -7
-142 12 -123 20 20 29 94 37 312 8 221 9 226 37 279 l29 55 8 -45 c5 -24 6
-143 3 -264z m-849 131 c-9 -228 -8 -225 -90 -127 l-68 81 73 105 c40 58 76
105 82 105 6 0 7 -63 3 -164z m-2688 89 c68 -71 68 -99 0 -103 -52 -3 -66 8
-69 53 -3 48 -2 49 35 16 51 -44 53 -38 6 15 -39 44 -52 74 -32 74 4 0 32 -25
60 -55z m2986 24 c9 -17 14 -36 12 -42 -2 -7 -14 7 -26 31 -12 23 -17 42 -11
42 5 0 17 -14 25 -31z m101 -196 c-7 -316 -17 -481 -31 -499 -12 -17 -128 -48
-219 -59 -40 -5 -54 -4 -58 7 -3 7 0 110 6 228 15 283 32 281 29 -2 -3 -203 2
-235 27 -188 10 18 16 116 36 540 5 108 11 151 23 167 9 12 20 23 25 23 4 0 6
-165 3 -367 -4 -298 -3 -334 4 -188 14 274 18 308 35 294 32 -26 34 -124 8
-396 -4 -50 -3 -73 4 -73 26 0 46 159 62 480 10 201 19 260 42 260 6 0 7 -94
4 -227z m44 207 c7 -13 7 -20 1 -20 -6 0 -15 9 -21 20 -7 13 -7 20 -1 20 6 0
15 -9 21 -20z m150 1 c12 -24 13 -31 2 -31 -5 0 -14 11 -20 25 -14 29 2 34 18
6z m-440 -53 c0 -14 -18 -9 -24 8 -11 28 -6 39 9 20 8 -11 15 -23 15 -28z
m160 -66 c0 -10 -10 -3 -25 20 -14 20 -25 41 -25 45 1 16 50 -48 50 -65z m130
42 c12 -31 12 -34 1 -34 -5 0 -14 14 -20 30 -13 37 5 41 19 4z m152 -3 c5 -16
4 -21 -4 -19 -6 2 -15 14 -20 27 -5 16 -4 21 4 19 6 -2 15 -14 20 -27z m-450
-36 c3 -14 1 -25 -4 -25 -10 0 -28 42 -21 53 7 13 20 -1 25 -28z m168 -65 c-1
-9 -10 -4 -25 15 -14 17 -25 37 -25 45 1 9 10 4 25 -15 14 -16 25 -37 25 -45z
m290 8 c0 -5 -5 -8 -10 -8 -13 0 -30 41 -22 54 5 8 31 -30 32 -46z m140 10 c0
-14 -18 -9 -24 8 -11 28 -6 39 9 20 8 -11 15 -23 15 -28z m-3857 26 c18 -18
-18 -43 -85 -59 -40 -10 -81 -22 -91 -27 -24 -13 -41 0 -25 19 14 18 41 29
123 54 71 21 70 21 78 13z m3554 -9 c9 -25 -4 -29 -17 -6 -7 15 -7 21 0 21 6
0 13 -7 17 -15z m-297 -59 c-1 -21 -1 -21 -15 -2 -8 11 -15 29 -15 40 1 21 1
21 15 2 8 -11 15 -29 15 -40z m-2993 13 c32 -11 121 -124 108 -137 -3 -4 -32
-9 -63 -12 l-57 -5 -3 -63 c-4 -82 22 -137 90 -195 48 -40 49 -42 26 -48 -45
-13 -115 -10 -128 6 -17 21 -27 339 -11 378 6 15 21 31 33 36 15 5 18 10 9 15
-20 13 -71 -14 -78 -42 -3 -14 -3 -110 1 -214 7 -186 7 -188 -14 -188 -26 0
-32 17 -59 153 -12 60 -29 126 -37 148 -19 46 -66 89 -98 89 -34 0 -89 -41
-108 -80 -9 -19 -21 -40 -26 -46 -13 -14 -122 0 -133 18 -5 7 1 29 14 53 39
70 150 115 332 133 129 13 168 13 202 1z m3163 -50 c0 -18 -16 -9 -33 20 -9
16 -17 33 -17 38 1 11 50 -46 50 -58z m124 26 c3 -8 1 -15 -4 -15 -6 0 -10 7
-10 15 0 8 2 15 4 15 2 0 6 -7 10 -15z m154 -15 c14 -37 -4 -52 -18 -15 -12
33 -13 45 -1 45 5 0 14 -13 19 -30z m-717 -47 c70 -74 112 -130 107 -143 -2
-8 -101 98 -161 176 -36 46 1 23 54 -33z m261 10 c1 -12 -1 -23 -7 -25 -5 -2
-11 13 -13 32 -4 38 14 32 20 -7z m-195 -146 c71 -91 43 -78 -38 19 -41 48
-84 99 -96 113 -12 14 -22 31 -22 36 0 13 97 -92 156 -168z m-28 -20 c24 -32
42 -60 39 -63 -3 -2 -41 35 -84 83 -44 48 -85 94 -91 101 -7 7 -13 21 -13 30
1 19 79 -61 149 -151z m-123 81 c57 -60 114 -130 114 -140 0 -4 -6 -8 -13 -8
-17 0 -157 158 -157 177 0 22 14 15 56 -29z m-2141 13 c11 -18 -289 -38 -315
-21 -11 7 -6 10 20 11 30 1 203 12 267 17 12 1 24 -2 28 -7z m2117 -59 c47
-50 83 -100 77 -106 -7 -6 -259 -17 -259 -11 0 11 121 165 129 165 5 0 28 -21
53 -48z m-2813 9 c17 -17 48 -147 37 -158 -4 -5 -156 115 -156 123 0 12 20 0
70 -41 30 -25 59 -45 65 -45 11 1 -28 38 -85 82 -19 15 -31 30 -28 34 4 4 24
-8 44 -25 43 -38 59 -33 21 7 -39 40 -8 63 32 23z m1352 8 c19 -7 52 -25 74
-41 38 -28 60 -23 35 7 -22 26 31 18 97 -15 89 -44 90 -48 65 -128 -12 -37
-22 -75 -22 -84 0 -32 -18 -28 -30 6 -6 19 -17 39 -24 45 -11 9 -13 -10 -12
-101 1 -125 -14 -172 -67 -212 -30 -22 -47 -17 -111 35 l-34 29 20 57 c43 124
-20 293 -109 293 -87 0 -153 -76 -153 -174 0 -57 -16 -58 -44 -2 -16 33 -17
45 -8 87 34 146 191 242 323 198z m606 -32 c32 -37 43 -60 73 -164 24 -84 57
-128 101 -137 l32 -6 -7 -52 c-4 -29 -19 -75 -34 -101 -28 -51 -98 -117 -125
-117 -20 0 -124 83 -110 87 6 2 34 -10 63 -28 28 -17 53 -29 56 -26 3 2 -16
18 -41 33 -44 28 -56 44 -34 44 6 0 19 -5 30 -10 25 -14 25 2 -1 18 -20 12
-20 12 2 55 60 117 -3 284 -119 313 -75 19 -151 -37 -179 -133 -16 -54 -16
-55 -35 -36 -17 17 -18 23 -6 70 25 95 103 192 174 213 15 4 51 9 79 9 47 1
55 -2 81 -32z m-2193 -33 c12 -11 16 -36 16 -99 0 -101 -12 -120 -69 -110 -59
10 -71 34 -71 136 l0 89 54 0 c36 0 60 -5 70 -16z m151 -34 c16 -16 24 -30 19
-30 -6 0 -23 14 -39 30 -16 17 -24 30 -19 30 6 0 23 -13 39 -30z m1059 22 c15
-24 -18 -36 -129 -45 -118 -9 -205 -4 -205 13 0 14 32 20 155 29 156 12 173
12 179 3z m1644 -19 c-2 -5 -10 -20 -17 -35 -12 -24 -11 -29 14 -62 15 -20 25
-39 21 -43 -10 -11 -45 27 -56 63 -9 27 -8 38 6 58 14 23 42 38 32 19z m-2737
-19 c12 -14 9 -20 -16 -40 -16 -13 -31 -21 -33 -19 -6 6 19 75 28 75 4 0 14
-7 21 -16z m1405 -49 c68 -72 70 -228 4 -287 -63 -58 -150 -24 -178 69 -51
172 72 326 174 218z m596 4 c9 -5 30 -25 45 -45 54 -72 40 -221 -27 -278 -43
-36 -81 -41 -134 -18 -129 57 -123 313 7 351 33 10 79 5 109 -10z m-1917 -13
c47 -72 23 -176 -41 -176 l-25 0 22 31 c27 38 28 73 6 119 -9 18 -17 37 -17
42 0 18 40 7 55 -16z m65 -28 c11 -18 20 -41 20 -51 0 -10 16 -27 35 -38 39
-23 39 -24 24 -68 -11 -32 -23 -39 -34 -21 -3 6 -14 10 -22 10 -14 0 -12 -4 6
-21 29 -28 21 -35 -18 -14 -28 14 -46 5 -21 -10 16 -10 12 -28 -5 -21 -46 19
-50 19 -37 5 6 -7 12 -17 12 -21 0 -14 -55 -9 -78 8 -19 13 -52 63 -52 77 0 3
20 2 44 0 23 -3 53 0 64 6 30 16 46 83 34 143 -11 56 0 62 28 16z m2543 -4
c24 -32 17 -38 -28 -30 -40 8 -42 12 -18 38 21 23 24 23 46 -8z m114 2 c15
-13 24 -28 20 -32 -11 -12 -61 18 -65 39 -5 24 12 21 45 -7z m69 -3 c25 -24
27 -28 11 -31 -18 -4 -67 33 -67 50 0 17 28 7 56 -19z m58 6 c14 -11 26 -25
26 -30 0 -17 -29 -9 -50 13 -37 40 -21 52 24 17z m63 -3 c15 -13 25 -28 20
-32 -8 -9 -59 26 -65 44 -6 19 15 14 45 -12z m-2973 -2 c3 -9 6 -31 6 -49 0
-63 -27 -88 -50 -46 -22 42 -9 111 20 111 10 0 21 -7 24 -16z m3036 1 c7 -9
10 -19 6 -22 -8 -9 -38 9 -44 25 -5 17 23 15 38 -3z m44 9 c20 -8 21 -34 1
-34 -8 0 -15 2 -15 4 0 2 -3 11 -6 20 -7 18 -4 19 20 10z m-3357 -36 c-3 -8
-6 -5 -6 6 -1 11 2 17 5 13 3 -3 4 -12 1 -19z m2813 -83 c21 -25 8 -49 -34
-57 -41 -9 -66 2 -66 28 0 8 -4 14 -10 14 -5 0 -10 -12 -10 -26 0 -19 -4 -25
-17 -22 -12 2 -18 12 -18 28 0 22 6 26 55 37 75 15 86 15 100 -2z m-780 -56
c0 -14 -11 -11 -32 8 -10 9 -18 26 -18 37 1 19 2 19 25 -7 14 -15 25 -32 25
-38z m-593 14 c25 -27 47 -72 40 -80 -5 -4 -77 88 -77 99 0 14 10 9 37 -19z
m2680 -19 c-3 -3 -12 -4 -19 -1 -8 3 -5 6 6 6 11 1 17 -2 13 -5z m-2084 -46
c14 -24 23 -45 21 -47 -7 -7 -45 32 -60 61 -25 48 10 35 39 -14z m558 -8 c14
-48 3 -68 -25 -47 -15 11 -17 21 -12 50 9 48 22 47 37 -3z m-991 -158 c-20 -7
-180 143 -180 169 0 6 43 -29 95 -78 53 -48 91 -89 85 -91z m7185 148 c-3 -5
-1 -27 4 -47 9 -32 8 -40 -6 -50 -25 -19 -4186 -19 -4200 0 -5 6 -10 33 -11
60 l-2 47 2111 0 c1385 0 2108 -3 2104 -10z m-6675 -107 c55 -47 100 -88 100
-90 0 -11 -50 12 -99 45 -62 42 -134 132 -106 132 3 0 50 -39 105 -87z m2270
78 c0 -13 -70 -28 -278 -61 -201 -32 -284 -36 -347 -16 l-40 13 35 7 c91 17
368 48 490 55 74 5 136 9 138 10 1 0 2 -3 2 -8z m-2647 -46 c26 -20 47 -40 47
-46 0 -14 -74 28 -102 58 -33 36 -1 28 55 -12z m847 -5 c0 -6 -6 -10 -14 -10
-16 0 -38 24 -30 33 9 8 44 -11 44 -23z m-959 -16 c49 -36 61 -54 36 -54 -16
0 -97 68 -97 81 0 15 10 11 61 -27z m62 5 c55 -36 65 -49 39 -49 -19 0 -102
58 -102 72 0 14 16 8 63 -23z m-178 -9 c27 -30 12 -34 -15 -5 -13 14 -19 25
-13 25 5 0 18 -9 28 -20z m735 -70 c19 -16 30 -30 24 -30 -15 0 -144 100 -144
112 0 10 59 -31 120 -82z m308 62 c2 -7 -3 -12 -12 -12 -9 0 -16 7 -16 16 0
17 22 14 28 -4z m-283 -22 c29 -17 58 -37 65 -45 23 -27 -23 -18 -72 15 -91
61 -86 83 7 30z m255 -10 c0 -5 -9 -10 -20 -10 -11 0 -20 5 -20 10 0 6 9 10
20 10 11 0 20 -4 20 -10z m395 -35 c-34 -16 -104 -20 -89 -6 10 11 46 18 89
19 l30 0 -30 -13z"/>
<path d="M1474 5115 c-4 -9 -2 -21 3 -26 14 -14 45 1 41 20 -4 22 -37 26 -44
6z"/>
<path d="M1366 4878 c-9 -12 -16 -27 -16 -32 0 -10 -104 -259 -124 -296 -38
-69 -38 -140 -1 -140 19 0 32 26 110 230 38 96 73 187 78 202 8 20 7 30 -2 42
-18 21 -27 20 -45 -6z"/>
<path d="M1477 4813 c-4 -3 -7 -31 -7 -62 0 -31 -10 -144 -21 -251 -34 -324
-35 -337 -16 -322 18 15 41 104 34 132 -3 11 -2 22 3 25 4 2 10 53 14 112 8
118 25 253 33 266 3 5 35 -23 72 -62 67 -72 91 -86 91 -53 0 24 -41 79 -116
160 -57 60 -73 70 -87 55z"/>
<path d="M1829 4428 c-2 -113 -51 -654 -60 -664 -12 -14 20 -29 34 -15 20 20
67 384 67 525 0 30 4 57 9 60 5 4 46 -34 92 -84 80 -88 119 -111 119 -71 0 27
-223 271 -248 271 -7 0 -12 -10 -13 -22z"/>
<path d="M2266 3928 c-4 -51 -13 -120 -21 -153 -7 -33 -16 -83 -19 -112 -4
-28 -15 -76 -25 -106 -11 -31 -16 -57 -11 -59 5 -2 2 -32 -5 -68 -17 -76 -19
-140 -5 -140 29 0 64 115 76 250 4 41 11 82 15 92 5 9 16 60 24 115 20 127 24
143 34 143 5 0 35 -33 67 -73 47 -60 62 -73 81 -69 13 2 23 8 23 12 0 16 -91
127 -158 193 l-69 69 -7 -94z"/>
<path d="M2662 3487 c-16 -89 -120 -559 -131 -590 -9 -24 -4 -47 9 -47 5 0 20
24 34 53 21 44 54 183 120 497 7 30 16 55 21 55 5 0 37 -34 72 -75 61 -73 94
-92 101 -59 3 17 -149 194 -190 221 l-24 16 -12 -71z"/>
<path d="M3294 3245 c-8 -20 4 -35 27 -35 20 0 23 8 13 34 -8 20 -33 21 -40 1z"/>
<path d="M3012 3177 c-5 -6 -13 -23 -17 -37 -4 -14 -49 -156 -101 -315 -52
-160 -94 -297 -94 -304 0 -19 37 15 55 50 8 14 41 111 75 215 72 222 109 324
118 324 4 0 37 -30 74 -67 52 -51 71 -64 79 -56 16 16 -19 61 -109 141 -52 47
-72 59 -80 49z"/>
<path d="M4160 3226 c0 -8 4 -17 8 -20 13 -8 35 11 28 23 -10 16 -36 14 -36
-3z"/>
<path d="M8268 2889 c-16 -9 -18 -33 -18 -264 0 -286 4 -308 54 -303 l31 3 3
246 c3 302 -9 355 -70 318z"/>
<path d="M5408 2879 c-16 -9 -18 -27 -18 -149 0 -158 8 -190 50 -190 34 0 40
24 39 149 0 107 -12 180 -30 192 -17 11 -20 11 -41 -2z"/>
<path d="M1665 2426 c52 -24 102 -73 132 -129 12 -23 17 -58 17 -130 1 -77 4
-96 14 -92 8 3 18 5 24 5 6 0 3 9 -7 20 -17 19 -17 20 10 30 l28 11 -21 15
c-27 19 -28 34 -2 34 11 0 20 5 20 10 0 6 -6 10 -14 10 -7 0 -19 7 -26 15 -10
12 -9 16 4 21 20 8 21 24 2 24 -23 0 -31 22 -12 35 15 11 14 13 -10 19 -25 7
-26 8 -9 26 18 19 17 20 -14 20 -28 0 -31 3 -26 20 5 17 2 20 -20 20 -22 0
-25 3 -20 20 6 19 2 20 -57 19 l-63 0 50 -23z"/>
<path d="M72 2338 c-15 -15 -16 -94 -2 -103 9 -6 53 37 73 72 19 32 -43 59
-71 31z"/>
<path d="M1563 2290 c-38 -22 -56 -53 -50 -83 3 -21 4 -21 15 6 6 15 13 27 15
27 2 0 3 -34 2 -77 0 -52 4 -77 13 -80 7 -3 12 4 12 19 1 22 1 22 12 3 14 -25
67 -75 79 -75 17 0 40 48 46 97 4 35 0 67 -12 102 -26 79 -70 99 -132 61z
m117 -79 c5 -11 10 -36 10 -56 0 -49 -16 -75 -45 -75 -29 0 -45 26 -45 72 0
63 55 104 80 59z"/>
<path d="M2184 2288 c-54 -14 -116 -100 -101 -140 3 -8 9 -2 15 14 20 49 30
40 25 -25 -4 -53 -2 -66 17 -89 29 -37 44 -36 25 2 -17 32 -20 90 -6 90 6 0
11 -17 13 -37 3 -34 8 -41 55 -65 l51 -26 23 24 c30 32 37 110 15 168 -27 70
-74 100 -132 84z m93 -86 c6 -4 17 -20 23 -36 8 -23 7 -36 -7 -65 -21 -42 -54
-52 -84 -25 -50 45 13 161 68 126z"/>
</g>
</svg>
